<svg xmlns="http://www.w3.org/2000/svg" xmlns:xlink="http://www.w3.org/1999/xlink" width="904" height="561.6199999999999"><rect width="904" height="561.6199999999999" rx="5" ry="5" class="a"></rect><svg y="0%" x="0%"><circle cx="20" cy="20" r="6" class="b"></circle><circle cx="40" cy="20" r="6" class="c"></circle><circle cx="60" cy="20" r="6" class="d"></circle></svg><svg height="477.61999999999995" viewBox="0 0 84 47.76199999999999" width="840" x="27" xmlns="http://www.w3.org/2000/svg" xmlns:xlink="http://www.w3.org/1999/xlink" y="62"><style>.a{fill:rgb(40,45,53)}.b{fill:#ff5f58}.c{fill:#ffbd2e}.d{fill:#18c132}.e{font-family:Monaco,Consolas,Menlo,'Bitstream Vera Sans Mono','Powerline Symbols',monospace}.f{fill:rgb(185,192,203);white-space:pre}.g{fill:transparent}.h{fill:rgb(111,118,131)}.j{animation-duration:3.8s;animation-iteration-count:infinite;animation-name:i;animation-timing-function:steps(1,end)}@keyframes i{0%{transform:translateX(-0px)}0%{transform:translateX(-84px)}10.5%{transform:translateX(-168px)}26.3%{transform:translateX(-252px)}34.2%{transform:translateX(-336px)}44.7%{transform:translateX(-420px)}57.9%{transform:translateX(-504px)}73.7%{transform:translateX(-588px)}84.2%{transform:translateX(-672px)}100%{transform:translateX(-756px)}}</style><g font-family="Monaco, Consolas, Menlo, &#x27;Bitstream Vera Sans Mono&#x27;, &#x27;Powerline Symbols&#x27;, monospace" font-size="1.67" class="e"><defs><symbol id="1"><text x="0" y="1.67" class="f">$</text><text x="2.004" y="1.67" class="f">curl</text><text x="7.013999999999999" y="1.67" class="f">-fsSL</text><text x="13.026" y="1.67" class="f">https://ato.run/install.sh</text><text x="40.08" y="1.67" class="f">|</text><text x="42.083999999999996" y="1.67" class="f">sh</text></symbol><symbol id="2"><text x="0" y="1.67" class="f">Installed:</text><text x="11.021999999999998" y="1.67" class="f">~/.local/bin/ato</text></symbol><symbol id="3"><text x="0" y="1.67" class="f">Try:</text><text x="5.01" y="1.67" class="f">ato</text><text x="9.017999999999999" y="1.67" class="f">--version</text></symbol><symbol id="4"><text x="0" y="1.67" class="f">$</text><text x="2.004" y="1.67" class="f">mkdir</text><text x="8.016" y="1.67" class="f">hello-ato</text><text x="18.035999999999998" y="1.67" class="f">&amp;&amp;</text><text x="21.041999999999998" y="1.67" class="f">cd</text><text x="24.048" y="1.67" class="f">hello-ato</text></symbol><symbol id="5"><text x="0" y="1.67" class="f">$</text><text x="2.004" y="1.67" class="f">printf</text><text x="9.017999999999999" y="1.67" class="f">&#x27;print(&quot;hello</text><text x="23.045999999999996" y="1.67" class="f">from</text><text x="28.055999999999997" y="1.67" class="f">ato&quot;)\n&#x27;</text><text x="37.074" y="1.67" class="f">&gt;</text><text x="39.077999999999996" y="1.67" class="f">hello.py</text></symbol><symbol id="6"><text x="0" y="1.67" class="f">$</text><text x="2.004" y="1.67" class="f">ato</text><text x="6.012" y="1.67" class="f">run</text><text x="10.02" y="1.67" class="f">hello.py</text></symbol><symbol id="7"><text x="0" y="1.67" class="f">hello</text><text x="6.012" y="1.67" class="f">from</text><text x="11.021999999999998" y="1.67" class="f">ato</text></symbol><symbol id="8"><text x="0" y="1.67" class="f">$</text><text x="2.004" y="1.67" class="f">ato</text><text x="6.012" y="1.67" class="f">encap</text><text x="12.024" y="1.67" class="f">.</text><text x="14.027999999999999" y="1.67" class="f">--share</text></symbol><symbol id="9"><text x="0" y="1.67" class="f">Wrote</text><text x="6.012" y="1.67" class="f">share</text><text x="12.024" y="1.67" class="f">files:</text></symbol><symbol id="10"><text x="2.004" y="1.67" class="f">.ato/share/share.spec.json</text></symbol><symbol id="11"><text x="2.004" y="1.67" class="f">.ato/share/share.lock.json</text></symbol><symbol id="12"><text x="2.004" y="1.67" class="f">.ato/share/guide.md</text></symbol><symbol id="a"><rect height="23" width="84" x="0" y="0" class="g"></rect></symbol><symbol id="b"><rect height="2.171" width="1.1022" class="h"></rect></symbol></defs><rect height="47.76199999999999" width="84" class="a"></rect><g class="j"><svg x="0" y="0" width="840"><svg x="0"><use xlink:href="#a"></use><use xlink:href="#b" x="-0.0040000000000000036" y="0"></use></svg><svg x="84"><use xlink:href="#a"></use><use xlink:href="#b" x="-0.0040000000000000036" y="2.146"></use><use xlink:href="#1" y="0"></use></svg><svg x="168"><use xlink:href="#a"></use><use xlink:href="#b" x="-0.0040000000000000036" y="8.658999999999999"></use><use xlink:href="#1" y="0"></use><use xlink:href="#2" y="2.171"></use><use xlink:href="#3" y="4.342"></use></svg><svg x="252"><use xlink:href="#a"></use><use xlink:href="#b" x="-0.0040000000000000036" y="10.83"></use><use xlink:href="#1" y="0"></use><use xlink:href="#2" y="2.171"></use><use xlink:href="#3" y="4.342"></use><use xlink:href="#4" y="8.684"></use></svg><svg x="336"><use xlink:href="#a"></use><use xlink:href="#b" x="-0.0040000000000000036" y="13.001"></use><use xlink:href="#1" y="0"></use><use xlink:href="#2" y="2.171"></use><use xlink:href="#3" y="4.342"></use><use xlink:href="#4" y="8.684"></use><use xlink:href="#5" y="10.855"></use></svg><svg x="420"><use xlink:href="#a"></use><use xlink:href="#b" x="-0.0040000000000000036" y="15.171999999999999"></use><use xlink:href="#1" y="0"></use><use xlink:href="#2" y="2.171"></use><use xlink:href="#3" y="4.342"></use><use xlink:href="#4" y="8.684"></use><use xlink:href="#5" y="10.855"></use><use xlink:href="#6" y="13.026"></use></svg><svg x="504"><use xlink:href="#a"></use><use xlink:href="#b" x="-0.0040000000000000036" y="17.343"></use><use xlink:href="#1" y="0"></use><use xlink:href="#2" y="2.171"></use><use xlink:href="#3" y="4.342"></use><use xlink:href="#4" y="8.684"></use><use xlink:href="#5" y="10.855"></use><use xlink:href="#6" y="13.026"></use><use xlink:href="#7" y="15.197"></use></svg><svg x="588"><use xlink:href="#a"></use><use xlink:href="#b" x="-0.0040000000000000036" y="19.514000000000003"></use><use xlink:href="#1" y="0"></use><use xlink:href="#2" y="2.171"></use><use xlink:href="#3" y="4.342"></use><use xlink:href="#4" y="8.684"></use><use xlink:href="#5" y="10.855"></use><use xlink:href="#6" y="13.026"></use><use xlink:href="#7" y="15.197"></use><use xlink:href="#8" y="17.368"></use></svg><svg x="672"><use xlink:href="#a"></use><use xlink:href="#b" x="-0.0040000000000000036" y="28.198000000000004"></use><use xlink:href="#1" y="0"></use><use xlink:href="#2" y="2.171"></use><use xlink:href="#3" y="4.342"></use><use xlink:href="#4" y="8.684"></use><use xlink:href="#5" y="10.855"></use><use xlink:href="#6" y="13.026"></use><use xlink:href="#7" y="15.197"></use><use xlink:href="#8" y="17.368"></use><use xlink:href="#9" y="19.539"></use><use xlink:href="#10" y="21.71"></use><use xlink:href="#11" y="23.880999999999997"></use><use xlink:href="#12" y="26.052"></use></svg><svg x="756"><use xlink:href="#a"></use><use xlink:href="#b" x="-0.0040000000000000036" y="30.369"></use><use xlink:href="#1" y="0"></use><use xlink:href="#2" y="2.171"></use><use xlink:href="#3" y="4.342"></use><use xlink:href="#4" y="8.684"></use><use xlink:href="#5" y="10.855"></use><use xlink:href="#6" y="13.026"></use><use xlink:href="#7" y="15.197"></use><use xlink:href="#8" y="17.368"></use><use xlink:href="#9" y="19.539"></use><use xlink:href="#10" y="21.71"></use><use xlink:href="#11" y="23.880999999999997"></use><use xlink:href="#12" y="26.052"></use><text x="0" y="29.893" class="f">Share</text><text x="6.012" y="29.893" class="f">URL:</text><text x="11.021999999999998" y="29.893" class="f">https://ato.run/s/hello-ato@r1</text></svg></svg></g></g></svg></svg>